<svg xmlns="http://www.w3.org/2000/svg" viewBox="0 0 585 140"><g fill="#C99E56" fill-rule="evenodd"><path d="M 536,42 L 535,44 L 538,44 L 541,47 L 541,92 L 538,95 L 535,95 L 535,96 L 537,98 L 539,98 L 540,96 L 542,97 L 543,96 L 546,96 L 547,97 L 549,96 L 550,98 L 559,98 L 562,96 L 563,97 L 564,96 L 570,96 L 572,95 L 573,93 L 572,92 L 572,90 L 574,89 L 574,86 L 571,86 L 571,88 L 566,93 L 562,93 L 560,95 L 551,95 L 550,93 L 548,92 L 548,71 L 549,70 L 560,70 L 564,74 L 565,74 L 565,63 L 564,63 L 560,67 L 549,67 L 548,66 L 548,47 L 549,46 L 566,46 L 567,47 L 567,51 L 569,53 L 571,53 L 571,43 L 540,43 L 539,42 Z"/><path d="M 432,42 L 431,44 L 433,44 L 436,47 L 436,92 L 433,95 L 431,95 L 431,96 L 433,98 L 434,98 L 436,96 L 438,97 L 439,96 L 443,96 L 444,97 L 446,97 L 447,96 L 447,95 L 445,95 L 443,93 L 444,92 L 444,75 L 443,74 L 445,72 L 448,72 L 453,77 L 453,79 L 457,83 L 457,85 L 461,89 L 461,91 L 466,96 L 469,96 L 470,97 L 472,96 L 474,98 L 477,98 L 479,96 L 479,95 L 475,95 L 466,86 L 466,84 L 465,84 L 464,82 L 462,81 L 462,78 L 460,77 L 460,74 L 459,74 L 458,72 L 456,71 L 457,69 L 460,68 L 466,62 L 466,50 L 465,50 L 464,48 L 463,48 L 462,46 L 460,45 L 460,44 L 457,44 L 456,43 L 450,43 L 449,42 L 444,42 L 443,43 L 435,43 L 434,42 Z"/><path d="M 445,44 L 448,44 L 450,46 L 454,46 L 459,51 L 459,62 L 457,63 L 457,64 L 455,65 L 455,66 L 453,67 L 452,69 L 445,69 L 443,67 L 444,65 L 444,47 L 443,46 Z"/><path d="M 353,42 L 352,44 L 355,44 L 356,46 L 357,46 L 358,48 L 360,49 L 360,88 L 358,89 L 358,94 L 357,95 L 354,95 L 354,98 L 357,98 L 359,96 L 362,96 L 364,98 L 367,98 L 369,96 L 369,95 L 364,95 L 363,94 L 363,58 L 364,57 L 366,57 L 367,59 L 368,59 L 369,61 L 371,62 L 371,65 L 372,65 L 380,73 L 380,76 L 381,76 L 388,83 L 388,85 L 393,90 L 393,92 L 399,98 L 401,98 L 401,96 L 400,95 L 401,94 L 401,49 L 400,48 L 404,44 L 406,44 L 406,43 L 405,42 L 403,42 L 402,43 L 396,43 L 395,42 L 392,42 L 391,43 L 391,44 L 394,44 L 397,47 L 397,79 L 396,80 L 394,80 L 393,78 L 392,78 L 391,76 L 390,76 L 389,74 L 387,73 L 387,71 L 382,66 L 382,63 L 381,63 L 374,56 L 374,54 L 369,49 L 369,47 L 365,43 L 356,43 L 355,42 Z"/><path d="M 312,42 L 311,44 L 314,44 L 315,45 L 315,94 L 314,95 L 311,95 L 311,98 L 314,98 L 316,96 L 318,97 L 319,96 L 324,96 L 326,98 L 337,98 L 338,96 L 346,96 L 346,94 L 348,93 L 348,88 L 350,87 L 349,85 L 348,85 L 345,88 L 345,90 L 343,91 L 342,93 L 336,93 L 334,95 L 327,95 L 325,93 L 323,93 L 322,92 L 322,71 L 323,70 L 334,70 L 338,74 L 340,74 L 341,73 L 341,71 L 339,70 L 339,68 L 341,66 L 341,64 L 340,63 L 338,63 L 334,67 L 323,67 L 322,66 L 322,47 L 323,46 L 340,46 L 341,47 L 341,49 L 343,51 L 343,53 L 346,52 L 346,50 L 344,49 L 344,43 L 316,43 L 315,42 Z"/><path d="M 256,42 L 255,44 L 258,44 L 261,48 L 260,50 L 261,51 L 261,88 L 260,89 L 261,91 L 258,95 L 255,95 L 255,96 L 257,98 L 258,98 L 260,96 L 262,97 L 263,96 L 265,96 L 266,97 L 268,96 L 270,98 L 277,98 L 279,96 L 286,96 L 287,95 L 289,95 L 291,93 L 293,93 L 301,85 L 301,83 L 303,81 L 303,77 L 305,76 L 305,61 L 303,60 L 303,56 L 299,52 L 300,51 L 297,48 L 295,48 L 293,46 L 291,46 L 290,44 L 287,44 L 286,43 L 278,43 L 277,42 L 259,43 L 258,42 Z"/><path d="M 269,44 L 276,44 L 278,46 L 286,46 L 287,48 L 288,48 L 289,50 L 290,50 L 291,52 L 294,54 L 294,57 L 296,58 L 296,64 L 298,66 L 298,73 L 296,75 L 296,81 L 294,82 L 294,85 L 292,86 L 288,91 L 285,91 L 284,93 L 278,93 L 276,95 L 273,95 L 271,93 L 269,93 L 268,92 L 268,45 Z"/><path d="M 217,42 L 216,44 L 218,44 L 221,47 L 221,92 L 218,95 L 216,95 L 216,96 L 218,98 L 219,98 L 221,96 L 223,97 L 224,96 L 226,96 L 227,97 L 229,96 L 231,98 L 238,98 L 239,96 L 249,96 L 251,94 L 251,86 L 249,86 L 249,88 L 245,93 L 237,93 L 235,95 L 232,95 L 230,93 L 228,93 L 227,92 L 227,49 L 229,47 L 228,46 L 230,44 L 232,44 L 232,43 L 231,42 L 229,42 L 228,43 L 220,43 L 219,42 Z"/><path d="M 500,41 L 497,43 L 491,44 L 491,45 L 489,46 L 489,47 L 487,48 L 487,49 L 485,50 L 485,51 L 483,52 L 482,54 L 481,54 L 481,56 L 479,58 L 479,60 L 477,62 L 477,77 L 479,79 L 479,83 L 480,83 L 481,85 L 483,86 L 483,89 L 484,89 L 485,91 L 486,91 L 487,93 L 489,94 L 489,95 L 496,96 L 498,98 L 511,98 L 512,96 L 518,95 L 518,94 L 520,93 L 520,92 L 522,91 L 522,90 L 525,87 L 526,87 L 526,84 L 528,83 L 528,81 L 530,78 L 530,61 L 528,58 L 528,56 L 526,55 L 526,52 L 525,52 L 522,49 L 522,48 L 520,47 L 520,46 L 517,46 L 516,44 L 514,43 L 510,43 L 509,41 Z"/><path d="M 499,44 L 508,44 L 510,46 L 512,46 L 513,48 L 514,48 L 515,50 L 516,50 L 519,53 L 519,55 L 521,57 L 520,58 L 520,62 L 522,64 L 522,77 L 520,79 L 520,83 L 521,84 L 519,86 L 519,88 L 517,89 L 517,90 L 515,91 L 514,93 L 511,93 L 510,95 L 499,95 L 497,93 L 495,93 L 488,86 L 488,82 L 486,80 L 487,79 L 487,74 L 485,71 L 485,66 L 487,64 L 487,59 L 486,57 L 488,55 L 488,53 L 495,46 L 497,46 Z"/><path d="M 180,41 L 178,43 L 172,44 L 161,55 L 162,58 L 160,59 L 159,61 L 160,62 L 160,64 L 158,65 L 158,76 L 160,77 L 160,79 L 159,80 L 162,83 L 161,84 L 163,86 L 163,88 L 168,93 L 170,93 L 175,97 L 177,96 L 178,98 L 191,98 L 193,96 L 198,95 L 200,93 L 200,92 L 202,91 L 202,90 L 204,89 L 205,87 L 206,87 L 206,84 L 208,83 L 208,81 L 210,79 L 210,71 L 212,70 L 212,68 L 210,66 L 210,60 L 208,58 L 208,54 L 207,54 L 206,52 L 205,52 L 204,50 L 203,50 L 198,44 L 196,44 L 193,42 L 191,43 L 189,41 Z"/><path d="M 179,44 L 188,44 L 190,46 L 192,46 L 194,48 L 196,48 L 197,49 L 197,51 L 199,53 L 199,55 L 201,57 L 201,59 L 203,61 L 203,80 L 201,82 L 201,84 L 199,86 L 199,88 L 194,93 L 192,93 L 190,95 L 179,95 L 178,93 L 175,93 L 174,91 L 172,90 L 171,86 L 169,85 L 169,81 L 167,79 L 167,58 L 169,57 L 169,53 L 170,51 L 172,50 L 172,49 L 174,48 L 175,46 L 178,46 Z"/><path d="M 115,44 L 115,45 L 113,46 L 113,47 L 111,48 L 111,49 L 106,54 L 105,54 L 105,57 L 103,59 L 104,62 L 102,63 L 102,80 L 104,81 L 105,87 L 106,87 L 112,93 L 114,93 L 119,97 L 121,96 L 122,98 L 137,98 L 138,96 L 147,95 L 148,94 L 148,77 L 150,76 L 151,74 L 152,74 L 152,71 L 139,71 L 138,70 L 136,70 L 135,72 L 138,72 L 139,74 L 140,74 L 141,76 L 143,77 L 143,90 L 141,91 L 140,93 L 138,93 L 136,95 L 125,95 L 123,93 L 121,93 L 120,91 L 117,91 L 116,90 L 116,87 L 115,87 L 113,85 L 113,83 L 111,81 L 111,75 L 109,73 L 109,66 L 111,64 L 111,58 L 113,56 L 114,51 L 116,50 L 116,49 L 118,48 L 119,46 L 121,46 L 123,44 L 136,44 L 138,46 L 142,46 L 143,48 L 145,49 L 146,55 L 148,55 L 148,45 L 146,43 L 138,43 L 137,41 L 124,41 L 121,43 Z"/><path d="M 68,10 L 67,11 L 68,12 L 67,14 L 67,17 L 65,19 L 64,19 L 63,17 L 62,17 L 62,24 L 58,28 L 56,27 L 55,19 L 54,17 L 53,17 L 53,19 L 54,20 L 54,29 L 51,35 L 49,37 L 47,38 L 45,37 L 39,37 L 35,41 L 29,34 L 27,27 L 26,27 L 26,31 L 27,32 L 26,33 L 24,33 L 21,30 L 20,24 L 21,22 L 23,21 L 24,13 L 23,13 L 23,16 L 21,19 L 19,19 L 18,25 L 17,26 L 16,26 L 14,24 L 14,23 L 12,22 L 12,20 L 11,19 L 11,15 L 10,15 L 10,21 L 13,27 L 18,32 L 25,35 L 26,36 L 27,41 L 33,46 L 31,54 L 27,61 L 27,63 L 26,64 L 26,68 L 25,69 L 26,82 L 28,84 L 28,86 L 30,89 L 30,98 L 29,99 L 29,103 L 28,104 L 29,105 L 26,111 L 26,114 L 23,120 L 23,122 L 19,129 L 22,129 L 22,128 L 24,126 L 26,119 L 29,114 L 29,112 L 33,104 L 34,105 L 34,108 L 33,109 L 34,110 L 33,111 L 33,114 L 34,115 L 33,116 L 32,125 L 30,129 L 33,129 L 34,127 L 34,120 L 35,119 L 35,116 L 36,115 L 36,112 L 37,111 L 36,109 L 37,108 L 37,106 L 39,102 L 39,98 L 42,93 L 51,93 L 52,92 L 54,92 L 55,93 L 57,100 L 60,106 L 62,108 L 62,111 L 63,112 L 62,123 L 59,129 L 61,129 L 62,128 L 64,121 L 65,120 L 65,116 L 67,114 L 69,116 L 69,118 L 70,119 L 69,121 L 70,122 L 71,129 L 73,129 L 73,125 L 72,124 L 73,123 L 72,122 L 72,118 L 71,117 L 70,108 L 68,105 L 68,102 L 67,101 L 69,98 L 69,95 L 70,94 L 70,82 L 69,80 L 63,75 L 61,75 L 60,74 L 52,74 L 51,73 L 48,73 L 44,71 L 42,69 L 40,65 L 40,59 L 42,56 L 42,53 L 43,52 L 44,48 L 54,40 L 54,38 L 55,37 L 53,35 L 57,32 L 62,30 L 67,25 L 67,23 L 69,20 L 68,19 L 68,17 L 69,16 L 69,11 Z"/><path d="M 41,86 L 42,85 L 44,87 L 48,88 L 49,89 L 50,88 L 53,88 L 54,90 L 53,91 L 47,91 L 46,92 L 43,92 L 42,91 L 42,88 Z"/><path d="M 29,72 L 31,75 L 31,77 L 37,84 L 39,88 L 38,89 L 37,89 L 31,83 L 28,76 L 28,73 Z"/><path d="M 33,54 L 34,55 L 34,63 L 36,67 L 46,74 L 48,74 L 50,76 L 56,77 L 58,79 L 59,79 L 64,84 L 67,90 L 67,92 L 66,93 L 60,87 L 57,87 L 56,86 L 49,86 L 48,85 L 44,85 L 42,83 L 41,84 L 39,83 L 39,81 L 37,80 L 31,69 L 32,68 L 31,66 L 31,61 L 32,60 L 32,55 Z"/><path d="M 33,53 L 34,52 L 35,54 L 34,55 Z"/><path d="M 35,49 L 36,50 L 36,52 L 35,53 L 34,52 L 34,50 Z"/><path d="M 38,43 L 39,41 L 41,41 L 42,42 L 40,45 Z"/><path d="M 64,22 L 65,21 L 67,22 L 66,23 Z"/></g></svg>